<svg xmlns="http://www.w3.org/2000/svg" viewBox="0 0 512 512">
  <rect width="512" height="512" rx="120" fill="#0d0b0f"/>
  <g fill="none" stroke="#c8a97e" stroke-linecap="round" stroke-width="14">
    <line x1="128" y1="200" x2="256" y2="128"/>
    <line x1="256" y1="128" x2="384" y2="200"/>
    <line x1="268" y1="150" x2="396" y2="222" opacity="0.4"/>
    <line x1="384" y1="200" x2="384" y2="344"/>
    <line x1="384" y1="344" x2="256" y2="416"/>
    <line x1="372" y1="366" x2="244" y2="438" opacity="0.4"/>
    <line x1="256" y1="416" x2="128" y2="344"/>
    <line x1="128" y1="344" x2="128" y2="200"/>
    <line x1="105" y1="344" x2="105" y2="200" opacity="0.4"/>
  </g>
  <circle cx="256" cy="272" r="72" fill="none" stroke="#c8a97e" stroke-dasharray="20 16" stroke-opacity="0.3" stroke-width="8"/>
  <g font-family="DM Sans, Arial, sans-serif" font-weight="700" text-anchor="middle">
    <circle cx="256" cy="128" r="34" fill="#0d0b0f" stroke="#c8a97e" stroke-width="10"/>
    <text x="256" y="142" fill="#c8a97e" font-size="34">N</text>
    <circle cx="256" cy="416" r="34" fill="#0d0b0f" stroke="#c8a97e" stroke-width="10"/>
    <text x="256" y="430" fill="#c8a97e" font-size="34">N</text>
    <circle cx="384" cy="200" r="26" fill="#0d0b0f" stroke="#c8a97e" stroke-opacity="0.7" stroke-width="8"/>
    <text x="384" y="210" fill="#c8a97e" fill-opacity="0.65" font-size="22">C</text>
    <circle cx="384" cy="344" r="26" fill="#0d0b0f" stroke="#c8a97e" stroke-opacity="0.7" stroke-width="8"/>
    <text x="384" y="354" fill="#c8a97e" fill-opacity="0.65" font-size="22">C</text>
    <circle cx="128" cy="200" r="26" fill="#0d0b0f" stroke="#c8a97e" stroke-opacity="0.7" stroke-width="8"/>
    <text x="128" y="210" fill="#c8a97e" fill-opacity="0.65" font-size="22">C</text>
    <circle cx="128" cy="344" r="26" fill="#0d0b0f" stroke="#c8a97e" stroke-opacity="0.7" stroke-width="8"/>
    <text x="128" y="354" fill="#c8a97e" fill-opacity="0.65" font-size="22">C</text>
  </g>
  <circle cx="256" cy="62" r="10" fill="#c8a97e" fill-opacity="0.5"/>
  <circle cx="304" cy="38" r="8" fill="#9b6fa0" fill-opacity="0.45"/>
  <circle cx="212" cy="32" r="6" fill="#6fb3a0" fill-opacity="0.35"/>
</svg>
